<svg xmlns="http://www.w3.org/2000/svg" version="1.1" xmlns:xlink="http://www.w3.org/1999/xlink" xmlns:svgjs="http://svgjs.dev/svgjs" width="800" height="1600" preserveAspectRatio="none" viewBox="0 0 800 1600"><g mask="url(&quot;#SvgjsMask1218&quot;)" fill="none"><rect width="800" height="1600" x="0" y="0" fill="rgba(66, 107, 105, 1)"></rect><path d="M0,699.069C126.82,677.393,210.588,564.629,324.812,505.418C454.89,437.989,636.174,449.658,716.952,327.421C798.027,204.735,780.012,32.874,727.977,-104.667C679.992,-231.501,534.384,-283.621,446.656,-387.03C357.601,-492.003,343.363,-681.069,210.008,-715.221C75.621,-749.637,-25.778,-580.171,-159.201,-542.19C-294.366,-503.714,-468.034,-590.733,-569.37,-493.362C-669.295,-397.346,-616.855,-228.499,-629.302,-90.48C-641.006,39.305,-678.961,167.96,-640.229,292.383C-598.605,426.098,-523.186,555.064,-404.975,630.154C-287.001,705.093,-137.765,722.616,0,699.069" fill="#365856"></path><path d="M800 2320.835C933.823 2349.821 1079.008 2284.7039999999997 1182.17 2194.669 1280.132 2109.173 1290.8 1967.048 1342.213 1847.62 1392.257 1731.371 1478.277 1628.738 1480.2759999999998 1502.191 1482.4389999999999 1365.301 1435.426 1230.054 1353.705 1120.212 1268.384 1005.531 1148.5720000000001 919.842 1013.0989999999999 874.253 874.333 827.555 718.591 805.689 582.963 860.841 451.602 914.257 389.652 1056.807 298.02 1165.031 207.61699999999996 1271.804 59.027000000000044 1352.45 48.599000000000046 1491.965 38.16300000000001 1631.588 157.19899999999996 1744.984 246.62099999999998 1852.72 318.253 1939.0230000000001 425.596 1976.905 511.226 2049.341 614.1800000000001 2136.432 668.206 2292.288 800 2320.835" fill="#4e7e7c"></path></g><defs><mask id="SvgjsMask1218"><rect width="800" height="1600" fill="#ffffff"></rect></mask></defs></svg>