<svg xmlns="http://www.w3.org/2000/svg" version="1.1" xmlns:xlink="http://www.w3.org/1999/xlink" xmlns:svgjs="http://svgjs.dev/svgjs" width="800" height="1100" preserveAspectRatio="none" viewBox="0 0 800 1100"><g mask="url(&quot;#SvgjsMask1194&quot;)" fill="none"><rect width="800" height="1100" x="0" y="0" fill="rgba(66, 107, 105, 1)"></rect><path d="M0,456.623C84.096,454.956,142.427,377.087,214.878,334.357C290.901,289.521,407.084,282.542,436.353,199.276C466.149,114.509,370.276,37.22,350.101,-50.337C332.303,-127.578,376.591,-221.443,325.454,-282.007C274.349,-342.533,177.934,-324.936,101.301,-345.001C27.442,-364.34,-41.301,-409.128,-116.806,-397.804C-196.944,-385.785,-263.365,-334.381,-324.458,-281.145C-393.464,-221.014,-476.629,-160.965,-492.122,-70.757C-507.676,19.808,-454.908,107.904,-404.468,184.714C-359.136,253.746,-288.961,296.909,-220.423,342.985C-150.402,390.058,-84.356,458.295,0,456.623" fill="#365856"></path><path d="M800 1620.154C898.217 1616.278 1000.873 1591.269 1072.371 1523.818 1139.884 1460.127 1135.108 1355.042 1171.519 1269.667 1206.711 1187.151 1293.204 1119.688 1282.722 1030.595 1272.23 941.415 1173.127 895.229 1119.034 823.556 1059.858 745.148 1040.189 628.2090000000001 949.875 589.572 858.832 550.623 756.317 599.745 661.335 627.749 566.453 655.723 469.037 682.742 398.532 752.126 324.917 824.5699999999999 258.98400000000004 919.1279999999999 260.303 1022.403 261.58799999999997 1123.04 361.46 1189.658 405.277 1280.2640000000001 447.757 1368.106 439.513 1482.2060000000001 513.453 1545.875 589.77 1611.591 699.366 1624.125 800 1620.154" fill="#4e7e7c"></path></g><defs><mask id="SvgjsMask1194"><rect width="800" height="1100" fill="#ffffff"></rect></mask></defs></svg>